# MagicaVoxel @ Ephtracy

# group
o 

# material
mtllib Rock.mtl
usemtl palette

# normals
vn -1 0 0
vn 1 0 0
vn 0 0 1
vn 0 0 -1
vn 0 -1 0
vn 0 1 0

# texcoords
vt 0.943359 0.5

# verts
v -3.5 0 4
v -3.5 0 1
v -3.5 5 4
v -3.5 5 1
v -2.5 0 1
v -2.5 0 -4
v -2.5 5 1
v -2.5 7 1
v -2.5 7 -4
v 0.5 0 4
v 0.5 0 2
v 0.5 3 2
v 0.5 3 1
v 0.5 5 4
v 0.5 5 1
v 2.5 0 -1
v 2.5 0 -4
v 2.5 3 1
v 2.5 3 -1
v 2.5 7 1
v 2.5 7 -4
v 3.5 0 2
v 3.5 0 -1
v 3.5 3 2
v 3.5 3 -1
v -3.5 0 4
v -3.5 5 4
v 0.5 0 4
v 0.5 5 4
v 0.5 0 2
v 0.5 3 2
v 3.5 0 2
v 3.5 3 2
v -2.5 5 1
v -2.5 7 1
v 0.5 3 1
v 0.5 5 1
v 2.5 3 1
v 2.5 7 1
v -3.5 0 1
v -3.5 5 1
v -2.5 0 1
v -2.5 5 1
v 2.5 0 -1
v 2.5 3 -1
v 3.5 0 -1
v 3.5 3 -1
v -2.5 0 -4
v -2.5 7 -4
v 2.5 0 -4
v 2.5 7 -4
v -3.5 0 4
v 0.5 0 4
v 0.5 0 2
v 3.5 0 2
v -3.5 0 1
v -2.5 0 1
v 2.5 0 -1
v 3.5 0 -1
v -2.5 0 -4
v 2.5 0 -4
v 0.5 3 2
v 3.5 3 2
v 0.5 3 1
v 2.5 3 1
v 2.5 3 -1
v 3.5 3 -1
v -3.5 5 4
v 0.5 5 4
v -3.5 5 1
v -2.5 5 1
v 0.5 5 1
v -2.5 7 1
v 2.5 7 1
v -2.5 7 -4
v 2.5 7 -4

# faces
f 3/1/1 2/1/1 1/1/1
f 4/1/1 2/1/1 3/1/1
f 7/1/1 6/1/1 5/1/1
f 8/1/1 6/1/1 7/1/1
f 9/1/1 6/1/1 8/1/1
f 10/1/2 11/1/2 12/1/2
f 10/1/2 12/1/2 14/1/2
f 12/1/2 13/1/2 14/1/2
f 14/1/2 13/1/2 15/1/2
f 16/1/2 17/1/2 19/1/2
f 18/1/2 19/1/2 20/1/2
f 19/1/2 17/1/2 21/1/2
f 20/1/2 19/1/2 21/1/2
f 22/1/2 23/1/2 24/1/2
f 24/1/2 23/1/2 25/1/2
f 28/1/3 27/1/3 26/1/3
f 29/1/3 27/1/3 28/1/3
f 32/1/3 31/1/3 30/1/3
f 33/1/3 31/1/3 32/1/3
f 37/1/3 35/1/3 34/1/3
f 38/1/3 37/1/3 36/1/3
f 39/1/3 35/1/3 37/1/3
f 39/1/3 37/1/3 38/1/3
f 40/1/4 41/1/4 42/1/4
f 42/1/4 41/1/4 43/1/4
f 44/1/4 45/1/4 46/1/4
f 46/1/4 45/1/4 47/1/4
f 48/1/4 49/1/4 50/1/4
f 50/1/4 49/1/4 51/1/4
f 54/1/5 53/1/5 52/1/5
f 56/1/5 54/1/5 52/1/5
f 56/1/5 55/1/5 54/1/5
f 57/1/5 55/1/5 56/1/5
f 58/1/5 55/1/5 57/1/5
f 59/1/5 55/1/5 58/1/5
f 60/1/5 58/1/5 57/1/5
f 61/1/5 58/1/5 60/1/5
f 62/1/6 63/1/6 64/1/6
f 64/1/6 63/1/6 65/1/6
f 65/1/6 63/1/6 66/1/6
f 66/1/6 63/1/6 67/1/6
f 68/1/6 69/1/6 70/1/6
f 70/1/6 69/1/6 71/1/6
f 71/1/6 69/1/6 72/1/6
f 73/1/6 74/1/6 75/1/6
f 75/1/6 74/1/6 76/1/6
